<svg width="512" height="512" viewBox="0 0 512 512" fill="none" xmlns="http://www.w3.org/2000/svg" role="img" aria-label="Staynex">
  <path d="M256 40L443.061 148V364L256 472L68.9385 364V148L256 40Z" fill="#0A66FF"/>
  <path d="M256 73L414.482 164.5V347.5L256 439L97.518 347.5V164.5L256 73Z" stroke="white" stroke-opacity="0.28" stroke-width="18"/>
  <path d="M321.5 165.2C303.9 152.8 281.7 146.6 254.8 146.6C225.5 146.6 201.9 153.4 184 167C166.1 180.4 157.2 198.9 157.2 222.4C157.2 244.9 164.7 262.1 179.8 274C194.9 285.7 218.4 293.9 250.4 298.6C269.9 301.5 283.5 305.2 291.2 309.8C299 314.4 302.9 320.8 302.9 329C302.9 337.4 298.8 344.1 290.5 349.1C282.4 354.1 270.7 356.6 255.4 356.6C236.3 356.6 219.7 353.5 205.6 347.2C191.7 340.8 179.8 331.8 170 320.1L135.6 354.5C149.5 371.5 166.8 384.3 187.5 392.8C208.4 401.3 231.6 405.6 257.2 405.6C286.9 405.6 310.9 398.5 329.4 384.2C348 370 357.3 350.6 357.3 326C357.3 304.2 350.3 287.4 336.2 275.6C322.1 263.6 299.2 255 267.4 249.8C246.7 246.5 232.3 242.6 224.2 238.1C216.3 233.6 212.3 227 212.3 218.4C212.3 210.5 216 204.3 223.5 199.8C231.1 195.3 241.9 193 255.8 193C272.5 193 286.4 195.6 297.4 200.9C308.5 206.2 318.1 213.6 326.2 223.2L360.6 188.8C350.1 179.7 337.1 171.8 321.5 165.2Z" fill="white"/>
</svg>
